#!OML:ASF I:\Actors\actors\Patient Classification 2\Patient 1\Session 1\actor1.ASF
:FULLY-SPECIFIED
:DEGREES
490
root -0.657781 18.1276 5.64936 0.508926 0.406718 -2.60909
lowerback 5.35244 1.6355 1.89738
upperback -2.38096 2.3096 -0.40595
thorax -5.38199 1.06822 -1.71319
lowerneck -12.9033 -4.4561 -2.0083
upperneck 19.9887 -6.58583 3.83336
head 8.55084 -2.87162 0.880219
rclavicle 6.03808e-015 3.97569e-016
rhumerus -57.2086 -12.2256 -76.0551
rradius 44.2479
rwrist 5.69736
rhand -5.28081 -43.7253
rfingers 7.12502
rthumb 20.5236 -72.6604
lclavicle 6.03808e-015 3.97569e-016
lhumerus -47.016 3.19161 85.8426
lradius 41.0424
lwrist 3.30272
lhand -9.89647 -20.39
lfingers 7.12502
lthumb 16.0833 8.96258
rfemur 11.9391 2.40792 16.9706
rtibia -7.86081
rfoot -14.4338 -13.7738
rtoes 2.83484
lfemur 14.8243 -9.0708 -12.1028
ltibia -12.9383
lfoot -5.66788 17.0412
ltoes -14.8479
491
root -0.655577 18.1274 5.638 0.444107 0.335558 -2.64198
lowerback 5.34024 1.51273 1.86129
upperback -2.26437 2.1421 -0.389533
thorax -5.26166 0.989434 -1.65698
lowerneck -12.9184 -4.33554 -1.90364
upperneck 19.9166 -6.43071 3.80149
head 8.51945 -2.79515 0.870481
rclavicle 4.24902e-015 -3.97569e-016
rhumerus -56.8492 -11.9837 -76.7415
rradius 44.0116
rwrist 6.09681
rhand -5.17187 -43.5347
rfingers 7.12502
rthumb 20.6283 -72.4585
lclavicle 4.24902e-015 -3.97569e-016
lhumerus -45.8788 5.43104 84.3152
lradius 37.6375
lwrist -1.77769
lhand -8.05406 -20.0822
lfingers 7.12502
lthumb 17.8568 9.11798
rfemur 11.9358 2.47985 17.0172
rtibia -7.82992
rfoot -14.3963 -13.8161
rtoes 2.51432
lfemur 14.8894 -9.09837 -12.0889
ltibia -12.9554
lfoot -5.69425 17.0986
ltoes -14.7084
492
root -0.655091 18.1277 5.62881 0.404015 0.249822 -2.70458
lowerback 5.32631 1.38993 1.83614
upperback -2.16708 1.97552 -0.37565
thorax -5.15987 0.910151 -1.61029
lowerneck -12.9598 -4.18368 -1.71348
upperneck 19.8638 -6.23629 3.69965
head 8.49321 -2.70014 0.827152
rclavicle 3.80176e-015 -4.77083e-015
rhumerus -56.4478 -11.7849 -77.4652
rradius 43.7669
rwrist 6.48368
rhand -5.0472 -43.1796
rfingers 7.12502
rthumb 20.7481 -72.0904
lclavicle 3.80176e-015 -4.77083e-015
lhumerus -45.0672 7.44704 82.8739
lradius 34.9336
lwrist -6.41635
lhand -6.71857 -20.0323
lfingers 7.12502
lthumb 19.1415 9.04575
rfemur 11.9315 2.56352 17.0994
rtibia -7.83379
rfoot -14.3527 -13.8501
rtoes 2.40727
lfemur 14.9272 -9.07932 -12.0255
ltibia -12.9471
lfoot -5.73487 17.1566
ltoes -14.5064
493
root -0.656427 18.1283 5.62107 0.404571 0.136651 -2.71797
lowerback 5.25745 1.27168 1.72651
upperback -2.07136 1.808 -0.358553
thorax -5.03091 0.833459 -1.51161
lowerneck -13.0051 -4.053 -1.60508
upperneck 19.81 -6.07113 3.67688
head 8.47412 -2.61694 0.820077
rclavicle 1.50331e-015 -1.59028e-015
rhumerus -55.9153 -11.5596 -78.198
rradius 43.4693
rwrist 6.79635
rhand -4.76483 -42.7857
rfingers 7.12502
rthumb 21.0194 -71.6666
lclavicle 1.50331e-015 -1.59028e-015
lhumerus -44.5647 9.14945 81.7066
lradius 33.0556
lwrist -10.2221
lhand -5.89633 -19.9325
lfingers 7.12502
lthumb 19.932 9.06534
rfemur 11.8812 2.67414 17.122
rtibia -7.82724
rfoot -14.3336 -13.8569
rtoes 2.57719
lfemur 14.9248 -9.01486 -12.0058
ltibia -12.944
lfoot -5.73983 17.2126
ltoes -14.5211
494
root -0.65765 18.1274 5.61501 0.385726 -0.0525208 -2.73557
lowerback 5.23743 1.19099 1.63824
upperback -2.00295 1.69313 -0.351048
thorax -4.95496 0.780892 -1.44198
lowerneck -13.0052 -3.9418 -1.52527
upperneck 19.7772 -5.93757 3.69675
head 8.45742 -2.54678 0.829037
rclavicle -4.93234e-015 -1.59028e-015
rhumerus -55.4612 -11.3869 -78.8958
rradius 43.2329
rwrist 7.02747
rhand -4.41895 -42.4976
rfingers 7.12502
rthumb 21.3516 -71.3413
lclavicle -4.93234e-015 -1.59028e-015
lhumerus -44.3928 10.2285 80.9673
lradius 32.0438
lwrist -12.6125
lhand -5.55566 -19.6143
lfingers 7.12502
lthumb 20.2594 9.34909
rfemur 11.8525 2.85984 17.1567
rtibia -7.84256
rfoot -14.3273 -13.8584
rtoes 2.90232
lfemur 14.9593 -8.95379 -11.9977
ltibia -12.9213
lfoot -5.77901 17.311
ltoes -14.6331
495
root -0.65819 18.1264 5.60979 0.349103 -0.314831 -2.80746
lowerback 5.27684 1.16662 1.64858
upperback -1.96366 1.66175 -0.349007
thorax -4.93724 0.76549 -1.44315
lowerneck -13.0073 -3.84159 -1.38997
upperneck 19.7663 -5.80996 3.6147
head 8.44364 -2.48522 0.794011
rclavicle -1.75179e-015 -1.39149e-014
rhumerus -55.1811 -11.34 -79.5187
rradius 43.141
rwrist 7.22833
rhand -4.16108 -42.1152
rfingers 7.12502
rthumb 21.5993 -70.9306
lclavicle -1.75179e-015 -1.39149e-014
lhumerus -44.3265 10.579 80.6836
lradius 31.5977
lwrist -13.7264
lhand -5.42081 -19.2643
lfingers 7.12502
lthumb 20.389 9.68532
rfemur 11.8656 3.11638 17.2603
rtibia -7.91737
rfoot -14.2844 -13.8977
rtoes 3.03484
lfemur 15.0279 -8.89172 -11.9396
ltibia -12.8623
lfoot -5.931 17.4542
ltoes -14.3534
496
root -0.658278 18.1277 5.60433 0.366249 -0.581223 -2.85282
lowerback 5.29288 1.15185 1.62579
upperback -1.95071 1.64067 -0.345793
thorax -4.93428 0.755924 -1.42529
lowerneck -13.0101 -3.74158 -1.20556
upperneck 19.7477 -5.67635 3.45642
head 8.42361 -2.42504 0.72617
rclavicle -4.52856e-015 5.96354e-015
rhumerus -54.9514 -11.2909 -80.1076
rradius 43.1246
rwrist 7.37738
rhand -3.89209 -41.7256
rfingers 7.12502
rthumb 21.8576 -70.5111
lclavicle -4.52856e-015 5.96354e-015
lhumerus -44.2506 10.391 80.7663
lradius 31.5272
lwrist -13.8639
lhand -5.24077 -19.128
lfingers 7.12502
lthumb 20.5621 9.80305
rfemur 11.843 3.37489 17.3319
rtibia -8.02963
rfoot -14.1765 -13.9901
rtoes 2.78125
lfemur 15.0334 -8.8424 -11.9111
ltibia -12.7856
lfoot -6.09602 17.6317
ltoes -14.0501
497
root -0.658111 18.1294 5.59886 0.423671 -0.833434 -2.82648
lowerback 5.30473 1.13023 1.49113
upperback -1.96335 1.6028 -0.334459
thorax -4.95935 0.741224 -1.33503
lowerneck -12.9631 -3.62999 -1.01542
upperneck 19.6768 -5.52457 3.29307
head 8.37664 -2.35793 0.658921
rclavicle -2.28105e-014 2.78299e-015
rhumerus -54.7422 -11.183 -80.6552
rradius 43.1392
rwrist 7.43827
rhand -3.57959 -41.4246
rfingers 7.12502
rthumb 22.1576 -70.1747
lclavicle -2.28105e-014 2.78299e-015
lhumerus -44.3421 9.86714 81.0942
lradius 31.8961
lwrist -13.0804
lhand -5.1104 -19.7793
lfingers 7.12502
lthumb 20.6873 9.13815
rfemur 11.7705 3.61872 17.3215
rtibia -8.14262
rfoot -14.0373 -14.0793
rtoes 2.41032
lfemur 14.9838 -8.83044 -11.9624
ltibia -12.6965
lfoot -6.23452 17.8267
ltoes -13.8385
498
root -0.656697 18.1308 5.59392 0.479901 -1.13091 -2.75453
lowerback 5.33338 1.13957 1.31683
upperback -1.97898 1.6046 -0.301076
thorax -4.99738 0.747705 -1.20387
lowerneck -12.951 -3.53603 -0.945326
upperneck 19.632 -5.37515 3.14349
head 8.34913 -2.29835 0.614885
rclavicle 2.83889e-015 -1.19271e-015
rhumerus -54.5958 -11.0289 -81.1169
rradius 43.248
rwrist 7.35707
rhand -3.35748 -41.1658
rfingers 7.12502
rthumb 22.3708 -69.8905
lclavicle 2.83889e-015 -1.19271e-015
lhumerus -44.6699 8.95061 81.7356
lradius 32.7708
lwrist -11.4879
lhand -5.14146 -21.215
lfingers 7.12502
lthumb 20.6575 7.70571
rfemur 11.7053 3.90721 17.2652
rtibia -8.29065
rfoot -13.8763 -14.1907
rtoes 2.17253
lfemur 14.9134 -8.81702 -12.0773
ltibia -12.5361
lfoot -6.42187 18.0325
ltoes -13.6037
499
root -0.654137 18.1328 5.59005 0.566308 -1.44429 -2.73832
lowerback 5.30361 1.15991 1.22034
upperback -1.9875 1.62785 -0.227564
thorax -4.99336 0.763539 -1.07522
lowerneck -12.9937 -3.46367 -1.02316
upperneck 19.6405 -5.24026 3.06102
head 8.35617 -2.2481 0.614565
rclavicle -6.9761e-015 -5.56597e-015
rhumerus -54.539 -10.9378 -81.443
rradius 43.5698
rwrist 7.38749
rhand -2.95336 -40.947
rfingers 7.12502
rthumb 22.7587 -69.6246
lclavicle -6.9761e-015 -5.56597e-015
lhumerus -45.1125 7.61743 82.7377
lradius 34.1356
lwrist -9.37071
lhand -5.2293 -22.235
lfingers 7.12502
lthumb 20.5731 6.6948
rfemur 11.6158 4.21121 17.2589
rtibia -8.43346
rfoot -13.7578 -14.2704
rtoes 2.38058
lfemur 14.8042 -8.75994 -12.1293
ltibia -12.347
lfoot -6.61665 18.2299
ltoes -13.5195
500
root -0.678164 18.1326 5.59849 0.714355 -1.68133 -2.79589
lowerback 4.97902 1.19593 0.776854
upperback -1.97127 1.64906 -0.0468108
thorax -4.80877 0.792657 -0.633299
lowerneck -12.982 -3.40604 -1.16426
upperneck 19.6027 -5.13974 3.11546
head 8.34426 -2.20627 0.667603
rclavicle -5.95733e-015 -2.78299e-015
rhumerus -54.6026 -11.0376 -81.643
rradius 44.0743
rwrist 7.65562
rhand -2.33528 -40.6765
rfingers 7.12502
rthumb 23.3518 -69.28
lclavicle -5.95733e-015 -2.78299e-015
lhumerus -45.4356 6.06033 84.0019
lradius 35.8568
lwrist -7.23518
lhand -5.22187 -21.1721
lfingers 7.12502
lthumb 20.5802 7.75692
rfemur 11.5796 4.42351 17.3803
rtibia -8.55744
rfoot -13.8075 -14.1967
rtoes 2.97711
lfemur 14.6593 -8.3636 -11.9236
ltibia -12.1472
lfoot -6.78006 18.0207
ltoes -13.4866
501
root -0.683264 18.1347 5.59667 0.849092 -1.93709 -2.83624
lowerback 4.86277 1.26794 0.633563
upperback -2.00577 1.73848 0.0375453
thorax -4.78416 0.842933 -0.471414
lowerneck -12.9135 -3.37728 -1.21545
upperneck 19.5374 -5.09127 3.13937
head 8.31065 -2.18658 0.690919
rclavicle -3.72721e-017 9.14409e-015
rhumerus -54.6805 -11.0966 -81.9105
rradius 44.4781
rwrist 7.7277
rhand -2.1546 -40.5819
rfingers 7.12502
rthumb 23.5251 -69.1633
lclavicle -3.72721e-017 9.14409e-015
lhumerus -45.5914 4.80212 84.9649
lradius 37.0218
lwrist -5.33607
lhand -5.35995 -21.3975
lfingers 7.12502
lthumb 20.4475 7.5459
rfemur 11.4341 4.66619 17.4374
rtibia -8.65051
rfoot -13.7509 -14.23
rtoes 2.97902
lfemur 14.4865 -8.2563 -11.8522
ltibia -11.9613
lfoot -7.02727 18.1114
ltoes -13.0219
502
root -0.678413 18.1375 5.59064 0.958615 -2.20775 -2.82997
lowerback 4.8454 1.35641 0.61255
upperback -2.04902 1.85631 0.0584275
thorax -4.81943 0.90208 -0.448743
lowerneck -12.875 -3.37866 -1.1372
upperneck 19.535 -5.08787 3.03597
head 8.29776 -2.19017 0.6447
rclavicle 3.43525e-015 -6.36111e-015
rhumerus -54.6803 -10.9913 -82.2728
rradius 44.7
rwrist 7.63591
rhand -2.25479 -40.7279
rfingers 7.12502
rthumb 23.429 -69.3216
lclavicle 3.43525e-015 -6.36111e-015
lhumerus -45.7282 3.67461 85.7818
lradius 38.0579
lwrist -3.61238
lhand -5.64384 -22.0685
lfingers 7.12502
lthumb 20.1747 6.9039
rfemur 11.2625 4.92926 17.4266
rtibia -8.73401
rfoot -13.6146 -14.3293
rtoes 2.62695
lfemur 14.3254 -8.23546 -11.8921
ltibia -11.7845
lfoot -7.28774 18.3049
ltoes -12.5244
503
root -0.674344 18.1384 5.58607 1.03746 -2.47016 -2.80737
lowerback 4.81194 1.43959 0.556391
upperback -2.06739 1.96461 0.0835745
thorax -4.8212 0.957925 -0.400284
lowerneck -12.8787 -3.38486 -1.06689
upperneck 19.5973 -5.09578 2.95014
head 8.31519 -2.19642 0.603312
rclavicle -2.45996e-014 -5.1684e-015
rhumerus -54.6468 -10.8936 -82.5595
rradius 44.8834
rwrist 7.866
rhand -1.93435 -41.0717
rfingers 7.12502
rthumb 23.7364 -69.6258
lclavicle -2.45996e-014 -5.1684e-015
lhumerus -45.7853 2.70285 86.5212
lradius 39.0087
lwrist -2.22898
lhand -5.99358 -22.602
lfingers 7.12502
lthumb 19.8385 6.40552
rfemur 11.1171 5.18385 17.407
rtibia -8.7675
rfoot -13.5162 -14.4032
rtoes 2.31362
lfemur 14.2396 -8.19644 -11.9524
ltibia -11.6731
lfoot -7.48016 18.4794
ltoes -12.2427
